<?xml version="1.0" standalone="no"?>
<!DOCTYPE svg PUBLIC "-//W3C//DTD SVG 20010904//EN"
 "http://www.w3.org/TR/2001/REC-SVG-20010904/DTD/svg10.dtd">
<svg version="1.0" xmlns="http://www.w3.org/2000/svg"
 width="500.000000pt" height="500.000000pt" viewBox="0 0 500.000000 500.000000"
 preserveAspectRatio="xMidYMid meet">

<g transform="translate(0.000000,500.000000) scale(0.100000,-0.100000)"
fill="#000000" stroke="none">
<path d="M583 4110 c-50 -30 -68 -66 -68 -135 l0 -60 369 -583 368 -583 84
143 83 143 -18 30 c-10 16 -118 192 -240 390 -122 197 -223 363 -224 367 -1 4
278 9 621 10 357 2 622 -1 622 -6 0 -5 -250 -439 -555 -966 -601 -1036 -577
-988 -536 -1068 32 -62 55 -77 121 -77 39 0 64 5 76 16 37 32 2566 1771 2570
1767 6 -6 -620 -1017 -1309 -2111 l-55 -88 -193 318 c-106 175 -194 320 -195
322 -2 2 -60 -33 -129 -79 -119 -79 -125 -84 -112 -104 7 -12 123 -199 256
-416 134 -217 261 -412 281 -432 21 -21 50 -40 65 -44 39 -10 102 12 140 49
18 18 230 354 470 747 241 393 654 1063 917 1488 264 425 484 788 489 807 12
42 -3 104 -29 128 -48 44 -135 59 -196 33 -52 -22 -344 -220 -1495 -1015 -590
-408 -1075 -740 -1077 -738 -2 1 182 324 408 717 407 708 488 859 488 906 0
34 -34 98 -66 123 -27 21 -28 21 -963 21 -910 0 -937 -1 -968 -20z"/>
</g>
</svg>
